<svg viewBox="0 0 1000 1000" xmlns="http://www.w3.org/2000/svg" fill="currentColor">
  <!-- Outer ring -->
  <circle cx="500" cy="500" r="450" fill="none" stroke="currentColor" stroke-width="120"/>

  <!-- Chat bubble -->
  <g>
    <!-- Bubble shape -->
    <path d="M 250 150 C 150 150 100 200 100 300 L 100 600 C 100 700 150 750 250 750 L 600 750 L 800 900 L 650 750 L 750 750 C 850 750 900 700 900 600 L 900 300 C 900 200 850 150 750 150 L 250 150 Z" fill="currentColor"/>

    <!-- Phone receiver inside bubble -->
    <g transform="translate(400, 280) scale(2.5)">
      <path d="M 60 20 C 70 20 75 25 75 35 L 75 145 C 75 155 70 160 60 160 L 40 160 C 30 160 25 155 25 145 L 25 35 C 25 25 30 20 40 20 L 60 20 M 40 28 L 60 28 L 60 148 L 40 148 L 40 28 M 45 155 L 55 155 L 55 160 L 45 160 L 45 155" stroke="white" stroke-width="8" fill="none" stroke-linecap="round" stroke-linejoin="round"/>
    </g>
  </g>
</svg>
